<svg width="45" height="45" viewBox="0 0 45 45" fill="none" xmlns="http://www.w3.org/2000/svg">
<path d="M7.5 35.625V32.2031H11.25V18.7031C11.25 16.0781 12.0312 13.75 13.5938 11.7187C15.1563 9.6875 17.1875 8.375 19.6875 7.78125V6.5625C19.6875 5.78125 19.9531 5.125 20.4844 4.59375C21.0469 4.03125 21.7188 3.75 22.5 3.75C23.2813 3.75 23.9375 4.03125 24.4688 4.59375C25.0312 5.125 25.3125 5.78125 25.3125 6.5625V7.78125C27.8125 8.375 29.8438 9.6875 31.4062 11.7187C32.9688 13.75 33.75 16.0781 33.75 18.7031V32.2031H37.5V35.625H7.5ZM22.5 41.25C21.4688 41.25 20.5781 40.8906 19.8281 40.1719C19.1094 39.4219 18.75 38.5312 18.75 37.5H26.25C26.25 38.5312 25.875 39.4219 25.125 40.1719C24.4062 40.8906 23.5312 41.25 22.5 41.25ZM14.6719 32.2031H30.3281V18.7031C30.3281 16.5469 29.5625 14.7031 28.0313 13.1719C26.5 11.6406 24.6563 10.875 22.5 10.875C20.3438 10.875 18.5 11.6406 16.9688 13.1719C15.4375 14.7031 14.6719 16.5469 14.6719 18.7031V32.2031Z" fill="white"/>
</svg>
